<svg width="7" height="12" viewBox="0 0 7 12" fill="none" xmlns="http://www.w3.org/2000/svg">
<path d="M0.19006 6.50739L5.49242 11.8097C5.61505 11.9324 5.77876 12 5.95332 12C6.12788 12 6.29159 11.9324 6.41423 11.8097L6.80471 11.4193C7.0588 11.1649 7.0588 10.7514 6.80471 10.4975L2.35219 6.04493L6.80965 1.58747C6.93229 1.46474 7 1.30113 7 1.12667C7 0.952009 6.93229 0.788396 6.80965 0.665565L6.41917 0.275277C6.29644 0.152543 6.13282 0.0849284 5.95826 0.0849284C5.7837 0.0849284 5.62 0.152543 5.49736 0.275277L0.19006 5.58238C0.0671325 5.7055 -0.000385225 5.86989 1.95115e-06 6.04464C-0.000385256 6.22007 0.0671325 6.38436 0.19006 6.50739Z" fill="#C4C4C4"/>
</svg>
